<svg version="1.1" xmlns="http://www.w3.org/2000/svg" xmlns:xlink="http://www.w3.org/1999/xlink" viewBox="0 0 172 172"><g transform=""><g fill="none" fill-rule="nonzero" stroke="none" stroke-width="1" stroke-linecap="butt" stroke-linejoin="miter" stroke-miterlimit="10" stroke-dasharray="" stroke-dashoffset="0" font-family="none" font-weight="none" font-size="none" text-anchor="none" style="mix-blend-mode: normal"><path d="M0,172v-172h172v172z" fill="none"></path><path d="M86,139.32c-29.44782,0 -53.32,-23.87218 -53.32,-53.32v0c0,-29.44782 23.87218,-53.32 53.32,-53.32v0c29.44782,0 53.32,23.87218 53.32,53.32v0c0,29.44782 -23.87218,53.32 -53.32,53.32z" fill="#ffffff"></path><g fill="#cccccc"><path d="M55.3496,27.4856c-15.35678,0 -27.864,12.50722 -27.864,27.864v61.3008c0,15.35678 12.50722,27.864 27.864,27.864h61.3008c15.35678,0 27.864,-12.50722 27.864,-27.864v-61.3008c0,-15.35678 -12.50722,-27.864 -27.864,-27.864zM52.5632,60.9224h66.8736c0.50155,0 0.97459,0.0566 1.42041,0.19592l-27.39053,27.36332c-4.12387,4.12387 -10.8367,4.12387 -14.96057,0l-27.36332,-27.36332c0.44582,-0.13932 0.91886,-0.19592 1.42041,-0.19592zM47.18632,65.07479l20.95242,20.92521l-20.95242,20.92521c-0.13932,-0.44582 -0.19592,-0.91886 -0.19592,-1.42041v-39.0096c0,-0.50155 0.0566,-0.97459 0.19592,-1.42041zM124.81368,65.07479c0.13932,0.44582 0.19592,0.91886 0.19592,1.42041v39.0096c0,0.50155 -0.0566,0.97459 -0.19592,1.42041l-20.97963,-20.92521zM72.068,89.92926l2.48164,2.50885c3.14863,3.14863 7.29928,4.70749 11.42315,4.70749c4.15174,0 8.27452,-1.55886 11.42315,-4.70749l2.50885,-2.50885l20.95242,20.95242c-0.44582,0.13932 -0.91886,0.19592 -1.42041,0.19592h-66.8736c-0.50155,0 -0.97459,-0.0566 -1.42041,-0.19592z"></path></g><path d="M86,158.24c-39.89705,0 -72.24,-32.34295 -72.24,-72.24v0c0,-39.89705 32.34295,-72.24 72.24,-72.24h0c39.89705,0 72.24,32.34295 72.24,72.24v0c0,39.89705 -32.34295,72.24 -72.24,72.24z" fill="none"></path><path d="M86,154.8c-37.99719,0 -68.8,-30.80281 -68.8,-68.8v0c0,-37.99719 30.80281,-68.8 68.8,-68.8h0c37.99719,0 68.8,30.80281 68.8,68.8v0c0,37.99719 -30.80281,68.8 -68.8,68.8z" fill="none"></path></g></g></svg>